<?xml version="1.0" encoding="UTF-8"?>
<svg xmlns="http://www.w3.org/2000/svg" xmlns:xlink="http://www.w3.org/1999/xlink" width="0" height="0">
<symbol id="gg-menu" width="28" height="28" fill="none"><path d="M2.333 7a1.1667 1.1667 0 0 1 1.1667-1.1666h21a1.1666 1.1666 0 0 1 0 2.3333h-21A1.1667 1.1667 0 0 1 2.333 7Zm0 7.0374a1.1668 1.1668 0 0 1 1.1667-1.1667h21a1.1665 1.1665 0 1 1 0 2.3333h-21a1.1666 1.1666 0 0 1-1.1667-1.1666Zm1.1667 5.8706a1.167 1.167 0 0 0-1.1667 1.1667 1.1668 1.1668 0 0 0 1.1667 1.1667h21a1.1665 1.1665 0 0 0 .8249-1.9917 1.167 1.167 0 0 0-.8249-.3417h-21Z" fill="#7EB101"/></symbol>
<symbol id="touch" width="22" height="29" fill="none"><path d="M10.5003.3333c2.0222 0 3.75.7056 5.1833 2.1167 1.4333 1.411 2.15 3.1278 2.15 5.15 0 1.1555-.25 2.2444-.75 3.2666-.5 1.0223-1.2056 1.8889-2.1167 2.6h-1.1333V11.8c.6444-.5111 1.1389-1.1334 1.4833-1.8667.3445-.7333.5167-1.5111.5167-2.3333 0-1.4667-.5222-2.7111-1.5667-3.7333-1.0444-1.0223-2.3-1.5334-3.7666-1.5334-1.4667 0-2.7223.5111-3.7667 1.5333C5.689 4.889 5.1669 6.1334 5.1669 7.6c0 .8222.1723 1.6.5167 2.3333.3444.7333.8389 1.3556 1.4833 1.8667v2.4c-1.2444-.6445-2.2222-1.5556-2.9333-2.7334C3.5225 10.2889 3.1669 9 3.1669 7.6c0-2.0222.7167-3.739 2.15-5.15C6.7503 1.0389 8.478.3333 10.5003.3333Zm-1.2667 28c-.3778 0-.7333-.0722-1.0667-.2167-.3333-.1444-.6222-.3388-.8666-.5833L.4336 20.6666l1.8667-1.9333c.311-.3111.661-.55 1.05-.7167.3889-.1666.7944-.1944 1.2166-.0833l2.6.6V7.6667c0-.9334.3223-1.7223.9667-2.3667.6444-.6445 1.4333-.9667 2.3667-.9667.9333 0 1.7222.3222 2.3666.9667.6445.6444.9667 1.4333.9667 2.3666V13.4h.8667c.1111 0 .2111.0222.3.0666a3.941 3.941 0 0 0 .3.1334l4.9333 2.4c.5333.2444.9278.6389 1.1833 1.1833.2556.5445.3278 1.1056.2167 1.6833l-1.2 7.2667c-.1111.6445-.4222 1.1722-.9333 1.5833-.5112.4112-1.0889.6167-1.7334.6167H9.2336Zm-.2667-2h9.3667l1.4333-8.3-6.1-3.0333h-1.8333V7.6666c0-.4-.1222-.7222-.3667-.9666-.2444-.2445-.5666-.3667-.9666-.3667s-.7223.1222-.9667.3667c-.2445.2444-.3667.5667-.3667.9666v13.3l-5.1333-1.1-.7667.7667 5.7 5.7Zm9.3667 0H8.9669h9.3667Z" fill="#7EB101"/></symbol>
<symbol id="star" width="17" height="16" fill="none"><path d="M7.7103.5187c.2921-.6916 1.2873-.6916 1.5795 0l1.7244 4.0819c.1233.2915.4018.4907.7215.516l4.4761.3533c.7584.0598 1.0659.9916.4881 1.4789l-3.4103 2.876c-.2436.2054-.35.5278-.2756.8349l1.0419 4.3002c.1765.7286-.6285 1.3045-1.2778.9141l-3.8322-2.3045a.8668.8668 0 0 0-.8917 0L4.2219 15.874c-.6492.3904-1.4543-.1855-1.2778-.9141l1.042-4.3002c.0743-.3071-.032-.6295-.2756-.835L.3 6.9487C-.2777 6.4616.0298 5.5297.7882 5.47l4.4762-.3533c.3197-.0253.5982-.2245.7214-.516L7.7103.5186Z" fill="#FFE550"/></symbol>
<symbol id="rocket" width="28" height="28" fill="none"><path d="m4.2333 11.6334 3.5334 1.5c.4-.8.8277-1.5889 1.2833-2.3667a28.5246 28.5246 0 0 1 1.45-2.2333L7.8667 8l-3.6334 3.6334Zm5.1334 2.7L13.8 18.7667c1.2667-.5778 2.4556-1.2333 3.5667-1.9667 1.1111-.7333 2.0111-1.4444 2.7-2.1333 1.8-1.8 3.1222-3.6444 3.9666-5.5333.8445-1.889 1.3-4.0223 1.3667-6.4C23.0222 2.8 20.8889 3.2556 19 4.1c-1.8889.8445-3.7333 2.1667-5.5333 3.9667-.6889.6889-1.4 1.5889-2.1334 2.7-.7333 1.1111-1.3889 2.3-1.9666 3.5667Zm7.6333-3.2c-.4444-.4445-.6667-.9945-.6667-1.65 0-.6556.2223-1.2056.6667-1.65.4444-.4445.9944-.6667 1.65-.6667s1.2056.2222 1.65.6667c.4444.4444.6667.9944.6667 1.65 0 .6555-.2223 1.2055-.6667 1.65-.4444.4444-.9944.6666-1.65.6666s-1.2056-.2222-1.65-.6666ZM16.5 23.9l3.6333-3.6333-.5333-2.6333a28.5515 28.5515 0 0 1-2.2333 1.45A40.7049 40.7049 0 0 1 15 20.3667L16.5 23.9ZM27.3667.7667c.2 3.0222-.1778 5.7778-1.1334 8.2667-.9555 2.4889-2.5333 4.8333-4.7333 7.0333l-.0667.0667-.0666.0666.7333 3.6667c.0667.3333.05.6556-.05.9667-.1.3111-.2722.5889-.5167.8333l-5.7 5.7333L13 20.8l-5.6667-5.6666-6.6-2.8334 5.7334-5.7c.2444-.2444.5222-.4166.8333-.5166.3111-.1.6333-.1167.9667-.05l3.6666.7333a.263.263 0 0 1 .0667-.05.263.263 0 0 0 .0667-.05c2.2-2.2 4.5444-3.7833 7.0333-4.75 2.4889-.9667 5.2444-1.35 8.2667-1.15Zm-24.4 18.4c.7777-.7778 1.7277-1.1722 2.85-1.1833 1.1222-.0111 2.0722.3722 2.85 1.15.7777.7777 1.161 1.7277 1.15 2.85-.0111 1.1222-.4056 2.0722-1.1834 2.85-.5777.5777-1.4722 1.0555-2.6833 1.4333-1.2111.3778-3.0278.7333-5.45 1.0667.3333-2.4223.6833-4.2445 1.05-5.4667s.8389-2.1222 1.4167-2.7Zm1.4 1.4333c-.3111.3334-.589.8556-.8334 1.5667-.2444.7111-.4555 1.6222-.6333 2.7333 1.1111-.1777 2.0222-.3889 2.7333-.6333.7111-.2444 1.2334-.5222 1.5667-.8333.4222-.3778.6389-.85.65-1.4167.0111-.5667-.1833-1.0611-.5833-1.4833-.4223-.4-.9167-.5945-1.4834-.5834-.5666.0111-1.0389.2278-1.4166.65Z" fill="#7EB101"/></symbol>
</svg>
